<?xml version="1.0" encoding="utf-8"?>
<!-- Generator: Adobe Illustrator 24.3.0, SVG Export Plug-In . SVG Version: 6.00 Build 0)  -->
<svg version="1.1" id="Layer_1" xmlns="http://www.w3.org/2000/svg" xmlns:xlink="http://www.w3.org/1999/xlink" x="0px" y="0px"
	 viewBox="0 0 512 512" style="enable-background:new 0 0 512 512;" xml:space="preserve">
<g>
	<path d="M431.16,215.58v-80.84c0-29.71-24.18-53.89-53.89-53.89h-80.84C296.42,36.26,260.13,0,215.58,0
		C171,0,134.74,36.26,134.74,80.84H53.89C24.16,80.84,0,105.03,0,134.74v107.79h26.95c29.74,0,53.89,24.16,53.89,53.89
		c0,29.76-24.16,53.89-53.89,53.89H0v107.79C0,487.84,24.16,512,53.89,512h107.79v-26.95c0-29.74,24.13-53.89,53.89-53.89
		c29.74,0,53.89,24.16,53.89,53.89V512h107.79c29.71,0,53.89-24.16,53.89-53.89v-80.84c44.55,0,80.84-36.26,80.84-80.84
		S475.71,215.58,431.16,215.58z"/>
</g>
</svg>
