<?xml version="1.0" encoding="utf-8"?>
<!-- Generator: Adobe Illustrator 24.3.0, SVG Export Plug-In . SVG Version: 6.00 Build 0)  -->
<svg version="1.1" id="Layer_1" xmlns="http://www.w3.org/2000/svg" xmlns:xlink="http://www.w3.org/1999/xlink" x="0px" y="0px"
	 viewBox="0 0 512 512" style="enable-background:new 0 0 512 512;" xml:space="preserve">
<g>
	<path d="M431.16,215.58v-80.84c0-29.71-24.18-53.89-53.89-53.89h-80.84C296.42,36.29,260.13,0,215.58,0
		C171,0,134.74,36.29,134.74,80.84H53.89C24.16,80.84,0,105.03,0,134.74v104.58l17.74,6.45c21.63,7.82,36.16,28.18,36.16,50.66
		s-14.53,42.84-36.16,50.66L0,353.53v104.58C0,487.84,24.16,512,53.89,512h104.58l6.42-17.76c7.82-21.61,28.21-36.13,50.68-36.13
		s42.84,14.53,50.66,36.13l6.42,17.76h104.61c29.71,0,53.89-24.16,53.89-53.89v-80.84c44.55,0,80.84-36.26,80.84-80.84
		C512,251.87,475.71,215.58,431.16,215.58z M431.16,323.37h-53.89l-0.11,134.74h-68.58c-19.16-32.87-54.47-53.89-93-53.89
		c-38.55,0-73.87,21.03-93.03,53.89H53.89v-68.66c32.87-19.16,53.89-54.47,53.89-93.03c0-38.53-21.03-73.87-53.89-93.03v-68.66
		h134.74V80.84c0-14.87,12.05-26.95,26.95-26.95c14.87,0,26.95,12.08,26.95,26.95v53.89h134.74v134.74h53.89
		c14.87,0,26.95,12.08,26.95,26.95S446.03,323.37,431.16,323.37z"/>
</g>
</svg>
